<svg xmlns="http://www.w3.org/2000/svg" viewBox="0 0 800 600">
  <!-- Background -->
  <rect width="800" height="600" fill="#f8f9fa" />
  
  <!-- Title -->
  <text x="400" y="40" font-family="Arial" font-size="24" text-anchor="middle" font-weight="bold">Quantum Portfolio Optimization Architecture</text>
  
  <!-- Main Flow Arrows -->
  <defs>
    <marker id="arrowhead" markerWidth="10" markerHeight="7" refX="10" refY="3.5" orient="auto">
      <polygon points="0 0, 10 3.5, 0 7" fill="#333" />
    </marker>
  </defs>
  
  <!-- Boxes -->
  <!-- Data Collection -->
  <rect x="50" y="100" width="150" height="80" rx="10" ry="10" fill="#e1f5fe" stroke="#01579b" stroke-width="2" />
  <text x="125" y="145" font-family="Arial" font-size="16" text-anchor="middle" font-weight="bold">Data Collection</text>
  
  <!-- Dimensionality Reduction -->
  <rect x="325" y="100" width="150" height="80" rx="10" ry="10" fill="#e8f5e9" stroke="#2e7d32" stroke-width="2" />
  <text x="400" y="135" font-family="Arial" font-size="16" text-anchor="middle" font-weight="bold">Dimensionality</text>
  <text x="400" y="155" font-family="Arial" font-size="16" text-anchor="middle" font-weight="bold">Reduction</text>
  
  <!-- Quantum Optimization -->
  <rect x="600" y="100" width="150" height="80" rx="10" ry="10" fill="#f3e5f5" stroke="#6a1b9a" stroke-width="2" />
  <text x="675" y="135" font-family="Arial" font-size="16" text-anchor="middle" font-weight="bold">Quantum</text>
  <text x="675" y="155" font-family="Arial" font-size="16" text-anchor="middle" font-weight="bold">Optimization</text>
  
  <!-- Flow Arrows -->
  <line x1="200" y1="140" x2="325" y2="140" stroke="#333" stroke-width="2" marker-end="url(#arrowhead)" />
  <line x1="475" y1="140" x2="600" y2="140" stroke="#333" stroke-width="2" marker-end="url(#arrowhead)" />
  
  <!-- Sub-components -->
  <!-- Data Collection -->
  <rect x="50" y="230" width="150" height="60" rx="5" ry="5" fill="#b3e5fc" stroke="#01579b" stroke-width="1.5" />
  <text x="125" y="265" font-family="Arial" font-size="14" text-anchor="middle">Market Data API</text>
  
  <rect x="50" y="310" width="150" height="60" rx="5" ry="5" fill="#b3e5fc" stroke="#01579b" stroke-width="1.5" />
  <text x="125" y="345" font-family="Arial" font-size="14" text-anchor="middle">Data Processing</text>
  
  <!-- Dimensionality Reduction -->
  <rect x="325" y="230" width="150" height="60" rx="5" ry="5" fill="#c8e6c9" stroke="#2e7d32" stroke-width="1.5" />
  <text x="400" y="265" font-family="Arial" font-size="14" text-anchor="middle">Hierarchical Clustering</text>
  
  <rect x="325" y="310" width="150" height="60" rx="5" ry="5" fill="#c8e6c9" stroke="#2e7d32" stroke-width="1.5" />
  <text x="400" y="345" font-family="Arial" font-size="14" text-anchor="middle">Correlation Distance</text>
  
  <rect x="325" y="390" width="150" height="60" rx="5" ry="5" fill="#c8e6c9" stroke="#2e7d32" stroke-width="1.5" />
  <text x="400" y="425" font-family="Arial" font-size="14" text-anchor="middle">Covariance Matrix</text>
  
  <!-- Quantum Optimization -->
  <rect x="600" y="230" width="150" height="60" rx="5" ry="5" fill="#e1bee7" stroke="#6a1b9a" stroke-width="1.5" />
  <text x="675" y="265" font-family="Arial" font-size="14" text-anchor="middle">QUBO Formulation</text>
  
  <rect x="600" y="310" width="150" height="60" rx="5" ry="5" fill="#e1bee7" stroke="#6a1b9a" stroke-width="1.5" />
  <text x="675" y="345" font-family="Arial" font-size="14" text-anchor="middle">QAOA Circuit</text>
  
  <rect x="600" y="390" width="150" height="60" rx="5" ry="5" fill="#e1bee7" stroke="#6a1b9a" stroke-width="1.5" />
  <text x="675" y="425" font-family="Arial" font-size="14" text-anchor="middle">Quantum Execution</text>
  
  <!-- Vertical connections -->
  <line x1="125" y1="180" x2="125" y2="230" stroke="#01579b" stroke-width="1.5" marker-end="url(#arrowhead)" />
  <line x1="125" y1="290" x2="125" y2="310" stroke="#01579b" stroke-width="1.5" marker-end="url(#arrowhead)" />
  
  <line x1="400" y1="180" x2="400" y2="230" stroke="#2e7d32" stroke-width="1.5" marker-end="url(#arrowhead)" />
  <line x1="400" y1="290" x2="400" y2="310" stroke="#2e7d32" stroke-width="1.5" marker-end="url(#arrowhead)" />
  <line x1="400" y1="370" x2="400" y2="390" stroke="#2e7d32" stroke-width="1.5" marker-end="url(#arrowhead)" />
  
  <line x1="675" y1="180" x2="675" y2="230" stroke="#6a1b9a" stroke-width="1.5" marker-end="url(#arrowhead)" />
  <line x1="675" y1="290" x2="675" y2="310" stroke="#6a1b9a" stroke-width="1.5" marker-end="url(#arrowhead)" />
  <line x1="675" y1="370" x2="675" y2="390" stroke="#6a1b9a" stroke-width="1.5" marker-end="url(#arrowhead)" />
  
  <!-- Results -->
  <rect x="325" y="490" width="150" height="70" rx="10" ry="10" fill="#fff3e0" stroke="#e65100" stroke-width="2" />
  <text x="400" y="515" font-family="Arial" font-size="16" text-anchor="middle" font-weight="bold">Optimized</text>
  <text x="400" y="535" font-family="Arial" font-size="16" text-anchor="middle" font-weight="bold">Portfolio Weights</text>
  
  <!-- Final flow to results -->
  <path d="M125,370 C125,450 250,490 325,520" stroke="#01579b" stroke-width="1.5" fill="none" marker-end="url(#arrowhead)" />
  <path d="M400,450 L400,490" stroke="#2e7d32" stroke-width="1.5" fill="none" marker-end="url(#arrowhead)" />
  <path d="M675,450 C675,500 550,520 475,520" stroke="#6a1b9a" stroke-width="1.5" fill="none" marker-end="url(#arrowhead)" />
  
  <!-- Key Performance Metrics -->
  <rect x="50" y="480" width="170" height="110" rx="5" ry="5" fill="#ffecb3" stroke="#ff6f00" stroke-width="1.5" />
  <text x="135" y="500" font-family="Arial" font-size="14" text-anchor="middle" font-weight="bold">Key Metrics</text>
  <text x="60" y="525" font-family="Arial" font-size="12">• Return: +29.12%</text>
  <text x="60" y="545" font-family="Arial" font-size="12">• Risk: 24.03%</text>
  <text x="60" y="565" font-family="Arial" font-size="12">• Sharpe Ratio: 1.21</text>
  <text x="60" y="585" font-family="Arial" font-size="12">• Improvement: +317.43%</text>
  
  <!-- Quantum Advantage -->
  <rect x="600" y="480" width="170" height="110" rx="5" ry="5" fill="#ffecb3" stroke="#ff6f00" stroke-width="1.5" />
  <text x="685" y="500" font-family="Arial" font-size="14" text-anchor="middle" font-weight="bold">Quantum Advantages</text>
  <text x="610" y="525" font-family="Arial" font-size="12">• High-Dimensional</text>
  <text x="610" y="545" font-family="Arial" font-size="12">• Non-convex Solutions</text>
  <text x="610" y="565" font-family="Arial" font-size="12">• Discrete Allocations</text>
  <text x="610" y="585" font-family="Arial" font-size="12">• Robust to Noise</text>
</svg>